<svg width="24" height="25" viewBox="0 0 24 25" fill="none" xmlns="http://www.w3.org/2000/svg">
<path fill-rule="evenodd" clip-rule="evenodd" d="M18 4.75V3.75C18 3.19772 17.5523 2.75 17 2.75C16.4477 2.75 16 3.19772 16 3.75V4.75H8V3.75C8 3.19772 7.55228 2.75 7 2.75C6.44772 2.75 6 3.19772 6 3.75V4.75H5C3.89 4.75 3.01 5.65 3.01 6.75L3 20.75C3 21.85 3.89 22.75 5 22.75H19C20.1 22.75 21 21.85 21 20.75V6.75C21 5.65 20.1 4.75 19 4.75H18ZM5 20.75V9.75H19V20.75H5ZM7 12.75C7 12.1977 7.44772 11.75 8 11.75H11C11.5523 11.75 12 12.1977 12 12.75V15.75C12 16.3023 11.5523 16.75 11 16.75H8C7.44772 16.75 7 16.3023 7 15.75V12.75Z" fill="#DBDBDB"/>
</svg>
