<svg width="32" height="35" viewBox="0 0 32 35" fill="none" xmlns="http://www.w3.org/2000/svg">
<circle cx="16" cy="16" r="16" fill="#F0CA10"/>
<path d="M11.3333 21.6667H8V13.6667H11.3333V21.6667ZM23.0767 16.0587C22.5053 15.982 22.6913 15.5693 23.0973 15.444C23.4447 15.3373 24 15.1107 24 14.4373C24 13.9893 23.6667 13.396 22.486 13.444C21.6673 13.4773 20.042 13.312 19.1667 12.854C19.7707 10.4167 19.6253 7 18.0413 7C16.9787 7 16.7773 8.20467 16.458 9.31267C15.644 12.1407 14.25 13.324 12.6667 13.9027V21.1547C15.588 21.622 16.8967 23 19.67 23C21.802 23 22.9047 21.8433 22.9047 21.2227C22.9047 20.9993 22.7233 20.8407 22.2647 20.8053C21.724 20.764 21.7753 20.264 22.2853 20.17C23.1307 20.014 23.5027 19.5607 23.5027 19.1413C23.5027 18.7887 23.2387 18.46 22.7707 18.354C22.2127 18.228 22.328 17.8493 22.7913 17.8127C23.5467 17.7527 23.9167 17.3033 23.9167 16.8727C23.9167 16.496 23.634 16.1333 23.0767 16.0587Z" fill="#FDF8DB"/>
</svg>
