<svg width="32" height="34" viewBox="0 0 32 34" fill="none" xmlns="http://www.w3.org/2000/svg">
<path d="M16 29.25C8.13046 29.25 1.75 22.8695 1.75 15C1.75 7.13046 8.13046 0.75 16 0.75C23.8695 0.75 30.25 7.13046 30.25 15C30.25 22.8695 23.8695 29.25 16 29.25Z" stroke="#F0CA10" stroke-width="1.5"/>
<path d="M22.2707 12.372C21.464 12.338 20.3573 12.1867 19.6193 11.876C20.1587 9.68733 20.4547 6 18.1553 6C16.9147 6 16.588 7.112 16.2667 8.21933C15.2347 11.7767 13.636 12.7633 12 13.1533V12.6667H8V20.6667H12V20.064C13.5853 20.216 14.746 20.64 16.1127 21.228C16.9507 21.5887 18.148 22 19.67 22C21.362 22 22.5333 21.3353 23.0093 19.5427C23.3427 18.2913 24 14.7093 24 14.0427C24 12.944 23.2213 12.412 22.2707 12.372ZM10.6667 19.3333H9.33333V14H10.6667V19.3333ZM21.264 15.6113C21.264 15.6113 21.398 15.618 21.9767 15.5933C22.698 15.5627 22.6773 16.5727 21.9793 16.6353L20.8053 16.7013C20.316 16.764 20.368 17.5033 20.8993 17.4827C20.8993 17.4827 21.3567 17.4713 21.6613 17.4553C22.3733 17.418 22.3387 18.408 21.688 18.4893C21.4053 18.5247 20.5247 18.566 20.5247 18.566C19.984 18.614 20.054 19.3893 20.5973 19.3267L21.1113 19.306C21.6593 19.2567 21.78 19.856 20.9167 20.4133C19.872 21.0007 17.7933 20.5007 16.6393 20.004C15.1467 19.3607 13.6807 18.7147 12 18.6667V14.6667C14.176 14.1673 16.2187 13.164 17.5473 8.59133C18.146 6.53 18.6667 7.304 18.6667 8.974C18.6667 10.3547 18.34 11.498 18.0527 12.6627C18.76 13.0247 20.3 13.5973 22.1327 13.7C22.836 13.7393 22.8153 14.67 22.0987 14.756L21.1693 14.8673C21.1693 14.8673 20.764 15.608 21.264 15.6113Z" fill="#F0CA10"/>
</svg>
