<svg width="18" height="18" viewBox="0 0 18 18" fill="none" xmlns="http://www.w3.org/2000/svg">
<rect width="18" height="18" rx="2" fill="white"/>
<path fill-rule="evenodd" clip-rule="evenodd" d="M15.8824 0H2.11765C0.948103 0 0 0.948103 0 2.11765V15.8824C0 17.0519 0.948103 18 2.11765 18H15.8824C17.0519 18 18 17.0519 18 15.8824V2.11765C18 0.948103 17.0519 0 15.8824 0ZM1.05882 2.11765C1.05882 1.53287 1.53287 1.05882 2.11765 1.05882H15.8824C16.4671 1.05882 16.9412 1.53287 16.9412 2.11765V15.8824C16.9412 16.4671 16.4671 16.9412 15.8824 16.9412H2.11765C1.53287 16.9412 1.05882 16.4671 1.05882 15.8824V2.11765Z" fill="#C2D1D9"/>
</svg>
