<svg width="16" height="16" viewBox="0 0 16 16" fill="none" xmlns="http://www.w3.org/2000/svg">
<path d="M16 3.33333V12H13.3333V16H2.66667V12H0V3.33333H2.66667V0H13.3333V3.33333H16ZM4 3.33333H12V1.33333H4V3.33333ZM12 10H4V14.6667H12V10ZM14.6667 4.66667H1.33333V10.6667H2.66667V8.66667H13.3333V10.6667H14.6667V4.66667ZM13.6667 5.33333C13.4827 5.33333 13.3333 5.48267 13.3333 5.66667C13.3333 5.85067 13.4827 6 13.6667 6C13.8507 6 14 5.85067 14 5.66667C14 5.48267 13.8507 5.33333 13.6667 5.33333Z" fill="#2D8DFC"/>
</svg>
