<svg width="16" height="16" viewBox="0 0 16 16" fill="none" xmlns="http://www.w3.org/2000/svg">
<path fill-rule="evenodd" clip-rule="evenodd" d="M13.8304 5.65218C13.9435 5.76296 14 5.89408 14 6.04575C14 6.19739 13.9435 6.32842 13.8304 6.4392L10.2856 9.91076V10.5229C10.2856 10.7678 10.4018 10.9396 10.634 11.0388C10.7113 11.0679 10.7857 11.0825 10.8571 11.0825C11.0179 11.0825 11.1519 11.0271 11.259 10.9163L15.8304 6.43923C15.9434 6.32842 16 6.19733 16 6.04575C16 5.89417 15.9434 5.76305 15.8304 5.65218L11.259 1.17504C11.0864 0.994304 10.8781 0.95363 10.6341 1.05256C10.4019 1.15173 10.2858 1.32368 10.2858 1.56852V2.17192L13.8304 5.65218ZM6.85739 3.85955C4.41093 4.0228 2.62819 4.66688 1.5092 5.792C0.503139 6.80061 0.000156403 8.28414 0 10.2429C0 10.581 0.0506296 10.97 0.151765 11.4103C0.252993 11.8505 0.367513 12.2527 0.49551 12.617C0.623507 12.9814 0.766578 13.3456 0.924222 13.7101C1.08196 14.0745 1.20248 14.3383 1.28573 14.5016L1.46426 14.8514C1.51198 14.9504 1.59523 15 1.71425 15C1.74997 15 1.77674 14.9972 1.79459 14.9913C1.94345 14.9447 2.01171 14.8456 1.99996 14.694C1.74399 12.3619 2.0595 10.7152 2.94644 9.75333C3.32743 9.33939 3.8348 9.01734 4.46869 8.78705C5.10286 8.55679 5.89889 8.40377 6.85714 8.32797V10.5229C6.85714 10.7678 6.97335 10.9396 7.20548 11.0388C7.28288 11.0679 7.35725 11.0825 7.42864 11.0825C7.58938 11.0825 7.72316 11.0271 7.83049 10.9163L12.4018 6.43923C12.5149 6.32842 12.5714 6.19733 12.5714 6.04575C12.5714 5.8942 12.515 5.76308 12.4018 5.65218L7.83061 1.17504C7.65802 0.994304 7.44965 0.95363 7.20564 1.05256C6.9735 1.15173 6.85739 1.32368 6.85739 1.56852V3.85955Z" fill="#2D8DFC"/>
</svg>
