<svg width="36" height="24" viewBox="0 0 36 24" fill="none" xmlns="http://www.w3.org/2000/svg">
<rect y="3" width="36" height="19" rx="9.5" fill="white"/>
<path fill-rule="evenodd" clip-rule="evenodd" d="M26.5 3H9.5C4.25329 3 0 7.25329 0 12.5C0 17.7467 4.25329 22 9.5 22H26.5C31.7467 22 36 17.7467 36 12.5C36 7.25329 31.7467 3 26.5 3ZM1 12.5C1 7.80558 4.80558 4 9.5 4H26.5C31.1944 4 35 7.80558 35 12.5C35 17.1944 31.1944 21 26.5 21H9.5C4.80558 21 1 17.1944 1 12.5Z" fill="#333333"/>
<path fill-rule="evenodd" clip-rule="evenodd" d="M26.5 19C30.0899 19 33 16.0899 33 12.5C33 8.91015 30.0899 6 26.5 6C22.9101 6 20 8.91015 20 12.5C20 16.0899 22.9101 19 26.5 19Z" fill="#333333"/>
</svg>
