<svg width="37" height="24" viewBox="0 0 37 24" fill="none" xmlns="http://www.w3.org/2000/svg">
<rect y="3" width="36.2432" height="19" rx="9.5" fill="#333333"/>
<path fill-rule="evenodd" clip-rule="evenodd" d="M26.6791 3H9.56419C4.28203 3 0 7.25329 0 12.5C0 17.7467 4.28203 22 9.56419 22H26.6791C31.9612 22 36.2432 17.7467 36.2432 12.5C36.2432 7.25329 31.9612 3 26.6791 3ZM1.00676 12.5C1.00676 7.80558 4.83805 4 9.56419 4H26.6791C31.4052 4 35.2365 7.80558 35.2365 12.5C35.2365 17.1944 31.4052 21 26.6791 21H9.56419C4.83805 21 1.00676 17.1944 1.00676 12.5Z" fill="#FAFAFA"/>
<path fill-rule="evenodd" clip-rule="evenodd" d="M9.56418 19C13.1783 19 16.1081 16.0899 16.1081 12.5C16.1081 8.91015 13.1783 6 9.56418 6C5.95008 6 3.02026 8.91015 3.02026 12.5C3.02026 16.0899 5.95008 19 9.56418 19Z" fill="white"/>
</svg>
