<svg width="16" height="16" viewBox="0 0 16 16" fill="none" xmlns="http://www.w3.org/2000/svg">
<path d="M14.3907 6.97407L7.69075 13.6907C6.39075 14.9901 4.27608 14.9901 2.97675 13.6907C1.67741 12.3914 1.67675 10.2761 2.97675 8.97606L10.0621 1.9194C10.8421 1.1394 12.1107 1.1394 12.8907 1.9194C13.6701 2.6994 13.6707 3.9674 12.8907 4.7474L7.21941 10.3901C6.95941 10.6501 6.53675 10.6501 6.27675 10.3901C6.01675 10.1301 6.01675 9.7074 6.27675 9.4474L11.0054 4.7474L10.0621 3.80473L5.33341 8.50406C4.55208 9.2854 4.55275 10.5527 5.33341 11.3334C6.11408 12.1141 7.38075 12.1141 8.16141 11.3334L13.8327 5.69073C14.4841 5.0394 14.8087 4.18673 14.8087 3.3334C14.8087 1.4874 13.3114 0.000732422 11.4754 0.000732422C10.6221 0.000732422 9.76941 0.326066 9.11808 0.977399L2.03341 8.03273C1.12275 8.94473 0.666748 10.1387 0.666748 11.3334C0.666748 13.9087 2.75341 16.0001 5.33341 16.0001C6.52808 16.0001 7.72208 15.5441 8.63341 14.6334L15.3334 7.91673L14.3907 6.97407Z" fill="#2D8DFC"/>
</svg>
